<svg viewBox="0 0 100 100" xmlns="http://www.w3.org/2000/svg">
  <rect width="100" height="100" fill="#333333" rx="10"/>
  <path d="M50 30 C35 30 25 40 25 55 C25 67 32 77 42 80 C43 80.2 43.5 79.7 43.5 79.1 L43.5 72 C32 74 31 66 31 66 C30 63 28 61 28 61 C25 58 28 58 28 58 C31 58 33 61 33 61 C36 65 40 64 43 63 C43 61 44 59 45 58 C35 57 25 53 25 40 C25 36 27 33 30 31 C29.7 30.3 29 27 30.2 24 C30.2 24 33 23 43 30 C46 29 49 28.7 52 28.7 C55 28.7 58 29 61 30 C71 23 74 24 74 24 C75.3 27 74.5 30.3 74 31 C77 33 79 36 79 40 C79 53 69 57 59 58 C60 59 61 61 61 63 L61 79.1 C61 79.7 61.5 80.2 62.5 80 C72.5 77 79 67 79 55 C79 40 69 30 50 30 Z" fill="white"/>
</svg>